<svg width="111" height="20" viewBox="0 0 111 20" fill="none" xmlns="http://www.w3.org/2000/svg">
<path d="M6.03517 9.2356C6.40892 7.84093 7.84252 6.40734 9.23718 6.03358L17.9322 3.70341C19.3269 3.32966 20.1545 4.15727 19.7807 5.55194L17.4505 14.2469C17.0768 15.6416 15.6432 17.0752 14.2485 17.4489L5.55352 19.7791C4.15885 20.1529 3.33124 19.3253 3.705 17.9306L6.03517 9.2356Z" fill="#9DC4F8"/>
<path d="M2.54933 5.74976C2.92308 4.35509 4.35668 2.9215 5.75135 2.54774L14.4464 0.217573C15.841 -0.156183 16.6686 0.671429 16.2949 2.0661L13.9647 10.7611C13.591 12.1558 12.1574 13.5894 10.7627 13.9631L2.06768 16.2933C0.673015 16.667 -0.1546 15.8394 0.219157 14.4448L2.54933 5.74976Z" fill="#406AFF"/>
<path d="M29.328 16V4.8H31.472L38.08 12.864H37.04V4.8H39.6V16H37.472L30.848 7.936H31.888V16H29.328ZM46.0099 16.128C45.0925 16.128 44.2765 15.936 43.5619 15.552C42.8579 15.168 42.2979 14.6453 41.8819 13.984C41.4765 13.312 41.2739 12.5493 41.2739 11.696C41.2739 10.832 41.4765 10.0693 41.8819 9.408C42.2979 8.736 42.8579 8.21333 43.5619 7.84C44.2765 7.456 45.0925 7.264 46.0099 7.264C46.9165 7.264 47.7272 7.456 48.4419 7.84C49.1565 8.21333 49.7165 8.73067 50.1219 9.392C50.5272 10.0533 50.7299 10.8213 50.7299 11.696C50.7299 12.5493 50.5272 13.312 50.1219 13.984C49.7165 14.6453 49.1565 15.168 48.4419 15.552C47.7272 15.936 46.9165 16.128 46.0099 16.128ZM46.0099 14.08C46.4259 14.08 46.7992 13.984 47.1299 13.792C47.4605 13.6 47.7219 13.328 47.9139 12.976C48.1059 12.6133 48.2019 12.1867 48.2019 11.696C48.2019 11.1947 48.1059 10.768 47.9139 10.416C47.7219 10.064 47.4605 9.792 47.1299 9.6C46.7992 9.408 46.4259 9.312 46.0099 9.312C45.5939 9.312 45.2205 9.408 44.8899 9.6C44.5592 9.792 44.2925 10.064 44.0899 10.416C43.8979 10.768 43.8019 11.1947 43.8019 11.696C43.8019 12.1867 43.8979 12.6133 44.0899 12.976C44.2925 13.328 44.5592 13.6 44.8899 13.792C45.2205 13.984 45.5939 14.08 46.0099 14.08ZM55.7583 16.128C54.7449 16.128 53.9556 15.872 53.3903 15.36C52.8249 14.8373 52.5423 14.064 52.5423 13.04V5.488H55.0383V13.008C55.0383 13.3707 55.1343 13.6533 55.3263 13.856C55.5183 14.048 55.7796 14.144 56.1103 14.144C56.5049 14.144 56.8409 14.0373 57.1183 13.824L57.7903 15.584C57.5343 15.7653 57.2249 15.904 56.8623 16C56.5103 16.0853 56.1423 16.128 55.7583 16.128ZM51.2143 9.504V7.584H57.1823V9.504H51.2143ZM63.0378 16.128C62.0564 16.128 61.1924 15.936 60.4458 15.552C59.7098 15.168 59.1391 14.6453 58.7338 13.984C58.3284 13.312 58.1258 12.5493 58.1258 11.696C58.1258 10.832 58.3231 10.0693 58.7178 9.408C59.1231 8.736 59.6724 8.21333 60.3658 7.84C61.0591 7.456 61.8431 7.264 62.7178 7.264C63.5604 7.264 64.3178 7.44533 64.9898 7.808C65.6724 8.16 66.2111 8.672 66.6058 9.344C67.0004 10.0053 67.1978 10.8 67.1978 11.728C67.1978 11.824 67.1924 11.936 67.1818 12.064C67.1711 12.1813 67.1604 12.2933 67.1498 12.4H60.1578V10.944H65.8378L64.8778 11.376C64.8778 10.928 64.7871 10.5387 64.6058 10.208C64.4244 9.87733 64.1738 9.62133 63.8538 9.44C63.5338 9.248 63.1604 9.152 62.7338 9.152C62.3071 9.152 61.9284 9.248 61.5978 9.44C61.2778 9.62133 61.0271 9.88267 60.8458 10.224C60.6644 10.5547 60.5738 10.9493 60.5738 11.408V11.792C60.5738 12.2613 60.6751 12.6773 60.8778 13.04C61.0911 13.392 61.3844 13.664 61.7578 13.856C62.1418 14.0373 62.5898 14.128 63.1018 14.128C63.5604 14.128 63.9604 14.0587 64.3018 13.92C64.6538 13.7813 64.9738 13.5733 65.2618 13.296L66.5898 14.736C66.1951 15.184 65.6991 15.5307 65.1018 15.776C64.5044 16.0107 63.8164 16.128 63.0378 16.128ZM74.2355 16.192C73.3715 16.192 72.5662 16.0533 71.8195 15.776C71.0835 15.488 70.4435 15.0827 69.8995 14.56C69.3555 14.0373 68.9288 13.424 68.6195 12.72C68.3208 12.016 68.1715 11.2427 68.1715 10.4C68.1715 9.55733 68.3208 8.784 68.6195 8.08C68.9288 7.376 69.3555 6.76267 69.8995 6.24C70.4542 5.71733 71.0995 5.31733 71.8355 5.04C72.5715 4.752 73.3768 4.608 74.2515 4.608C75.2222 4.608 76.0968 4.77867 76.8755 5.12C77.6648 5.45067 78.3262 5.94133 78.8595 6.592L77.1955 8.128C76.8115 7.69067 76.3848 7.36533 75.9155 7.152C75.4462 6.928 74.9342 6.816 74.3795 6.816C73.8568 6.816 73.3768 6.90133 72.9395 7.072C72.5022 7.24267 72.1235 7.488 71.8035 7.808C71.4835 8.128 71.2328 8.50667 71.0515 8.944C70.8808 9.38133 70.7955 9.86667 70.7955 10.4C70.7955 10.9333 70.8808 11.4187 71.0515 11.856C71.2328 12.2933 71.4835 12.672 71.8035 12.992C72.1235 13.312 72.5022 13.5573 72.9395 13.728C73.3768 13.8987 73.8568 13.984 74.3795 13.984C74.9342 13.984 75.4462 13.8773 75.9155 13.664C76.3848 13.44 76.8115 13.104 77.1955 12.656L78.8595 14.192C78.3262 14.8427 77.6648 15.3387 76.8755 15.68C76.0968 16.0213 75.2168 16.192 74.2355 16.192ZM84.073 16.128C83.1557 16.128 82.3397 15.936 81.625 15.552C80.921 15.168 80.361 14.6453 79.945 13.984C79.5397 13.312 79.337 12.5493 79.337 11.696C79.337 10.832 79.5397 10.0693 79.945 9.408C80.361 8.736 80.921 8.21333 81.625 7.84C82.3397 7.456 83.1557 7.264 84.073 7.264C84.9797 7.264 85.7903 7.456 86.505 7.84C87.2197 8.21333 87.7797 8.73067 88.185 9.392C88.5903 10.0533 88.793 10.8213 88.793 11.696C88.793 12.5493 88.5903 13.312 88.185 13.984C87.7797 14.6453 87.2197 15.168 86.505 15.552C85.7903 15.936 84.9797 16.128 84.073 16.128ZM84.073 14.08C84.489 14.08 84.8623 13.984 85.193 13.792C85.5237 13.6 85.785 13.328 85.977 12.976C86.169 12.6133 86.265 12.1867 86.265 11.696C86.265 11.1947 86.169 10.768 85.977 10.416C85.785 10.064 85.5237 9.792 85.193 9.6C84.8623 9.408 84.489 9.312 84.073 9.312C83.657 9.312 83.2837 9.408 82.953 9.6C82.6223 9.792 82.3557 10.064 82.153 10.416C81.961 10.768 81.865 11.1947 81.865 11.696C81.865 12.1867 81.961 12.6133 82.153 12.976C82.3557 13.328 82.6223 13.6 82.953 13.792C83.2837 13.984 83.657 14.08 84.073 14.08ZM93.9974 16.128C93.1867 16.128 92.456 15.9467 91.8054 15.584C91.1547 15.2107 90.6374 14.6933 90.2534 14.032C89.88 13.3707 89.6934 12.592 89.6934 11.696C89.6934 10.7893 89.88 10.0053 90.2534 9.344C90.6374 8.68267 91.1547 8.17067 91.8054 7.808C92.456 7.44533 93.1867 7.264 93.9974 7.264C94.7227 7.264 95.3574 7.424 95.9014 7.744C96.4454 8.064 96.8667 8.54933 97.1654 9.2C97.464 9.85067 97.6134 10.6827 97.6134 11.696C97.6134 12.6987 97.4694 13.5307 97.1814 14.192C96.8934 14.8427 96.4774 15.328 95.9334 15.648C95.4 15.968 94.7547 16.128 93.9974 16.128ZM94.4294 14.08C94.8347 14.08 95.2027 13.984 95.5334 13.792C95.864 13.6 96.1254 13.328 96.3174 12.976C96.52 12.6133 96.6214 12.1867 96.6214 11.696C96.6214 11.1947 96.52 10.768 96.3174 10.416C96.1254 10.064 95.864 9.792 95.5334 9.6C95.2027 9.408 94.8347 9.312 94.4294 9.312C94.0134 9.312 93.64 9.408 93.3094 9.6C92.9787 9.792 92.712 10.064 92.5094 10.416C92.3174 10.768 92.2214 11.1947 92.2214 11.696C92.2214 12.1867 92.3174 12.6133 92.5094 12.976C92.712 13.328 92.9787 13.6 93.3094 13.792C93.64 13.984 94.0134 14.08 94.4294 14.08ZM96.6854 16V14.24L96.7334 11.68L96.5734 9.136V4.128H99.0694V16H96.6854ZM105.491 16.128C104.51 16.128 103.646 15.936 102.899 15.552C102.163 15.168 101.593 14.6453 101.187 13.984C100.782 13.312 100.579 12.5493 100.579 11.696C100.579 10.832 100.777 10.0693 101.171 9.408C101.577 8.736 102.126 8.21333 102.819 7.84C103.513 7.456 104.297 7.264 105.171 7.264C106.014 7.264 106.771 7.44533 107.443 7.808C108.126 8.16 108.665 8.672 109.059 9.344C109.454 10.0053 109.651 10.8 109.651 11.728C109.651 11.824 109.646 11.936 109.635 12.064C109.625 12.1813 109.614 12.2933 109.603 12.4H102.611V10.944H108.291L107.331 11.376C107.331 10.928 107.241 10.5387 107.059 10.208C106.878 9.87733 106.627 9.62133 106.307 9.44C105.987 9.248 105.614 9.152 105.187 9.152C104.761 9.152 104.382 9.248 104.051 9.44C103.731 9.62133 103.481 9.88267 103.299 10.224C103.118 10.5547 103.027 10.9493 103.027 11.408V11.792C103.027 12.2613 103.129 12.6773 103.331 13.04C103.545 13.392 103.838 13.664 104.211 13.856C104.595 14.0373 105.043 14.128 105.555 14.128C106.014 14.128 106.414 14.0587 106.755 13.92C107.107 13.7813 107.427 13.5733 107.715 13.296L109.043 14.736C108.649 15.184 108.153 15.5307 107.555 15.776C106.958 16.0107 106.27 16.128 105.491 16.128Z" fill="#111729"/>
</svg>
